M48
INCH,TZ
T1C0.0157
T2C0.0354
T3C0.0394
T4C0.0591
T5C0.0630
T6C0.0709
%
G90
G05
T1
X40084Y-37328
X41610Y-40566
X41801Y-33548
X43097Y-36654
X43468Y-28535
X45153Y-43456
X45679Y-31082
X46059Y-32503
X46732Y-51812
X47039Y-50397
X49206Y-52025
X50930Y-38831
X53303Y-42767
X69024Y-40982
X71146Y-54847
X73337Y-36504
X75728Y-54024
X76224Y-50844
T2
X49172Y-21694
X49959Y-21694
X50747Y-21694
T3
X52254Y-50611
X53238Y-50611
X54222Y-50611
X58303Y-52914
X59287Y-52914
X62050Y-52914
X63034Y-52914
X66487Y-39592
X67471Y-39592
X68455Y-39592
X46174Y-39592
X47158Y-39592
X48142Y-39592
X56330Y-39592
X57314Y-39592
X58298Y-39592
X62231Y-50611
X63216Y-50611
X64200Y-50611
T4
X71515Y-23285
X71515Y-28285
X76015Y-23285
X76015Y-28285
X48345Y-21694
X51574Y-21694
X64795Y-23285
X64795Y-28285
X69295Y-23285
X69295Y-28285
T5
X42659Y-24302
X44510Y-23121
X44510Y-25483
T6
X41660Y-47353
X41660Y-49204
X41660Y-51054
X43550Y-47353
X43550Y-49204
X43550Y-51054
T0
M30
