M48
INCH,TZ
T1C0.0787
T2C0.1181
%
G90
G05
T1
X71515Y-24545
X76015Y-24545
X64795Y-24545
X69295Y-24545
X65739Y-36836
X69203Y-36836
X45426Y-36836
X48890Y-36836
X55582Y-36836
X59046Y-36836
X61483Y-47855
X64948Y-47855
X51506Y-47855
X54970Y-47855
T2
X72354Y-27045
X65633Y-27045
X40320Y-54775
X40390Y-21940
X76990Y-54760
X77005Y-21965
T0
M30
